<?xml version="1.0" standalone="no"?>
<!DOCTYPE svg PUBLIC "-//W3C//DTD SVG 20010904//EN"
 "http://www.w3.org/TR/2001/REC-SVG-20010904/DTD/svg10.dtd">
<svg version="1.0" xmlns="http://www.w3.org/2000/svg"
 width="736.000000pt" height="1308.000000pt" viewBox="0 0 736.000000 1308.000000"
 preserveAspectRatio="xMidYMid meet">

<g transform="translate(0.000000,1308.000000) scale(0.100000,-0.100000)"
fill="#000000" stroke="none">
<path d="M0 6540 l0 -6540 3680 0 3680 0 0 6540 0 6540 -3680 0 -3680 0 0
-6540z m1723 2845 c-76 -69 -137 -149 -195 -255 -42 -76 -66 -147 -111 -320
-27 -109 -31 -141 -31 -250 1 -208 59 -392 168 -537 80 -105 295 -282 461
-379 52 -31 95 -60 95 -65 0 -4 -7 -6 -15 -2 -10 3 -15 0 -13 -8 2 -9 -4 -13
-16 -11 -10 2 -15 -1 -11 -7 3 -7 0 -8 -9 -5 -9 3 -16 10 -16 15 0 5 -7 9 -15
9 -27 0 -187 97 -334 204 -77 56 -211 181 -211 198 0 4 -16 34 -36 68 -59 100
-108 277 -119 426 -14 196 51 493 135 619 14 22 38 60 52 85 40 70 128 175
178 213 41 31 98 66 110 67 2 0 -28 -29 -67 -65z m2713 34 c10 -12 38 -30 60
-39 23 -10 45 -23 48 -29 4 -6 27 -19 51 -30 40 -18 44 -23 51 -67 4 -26 13
-59 20 -73 8 -14 14 -32 14 -38 0 -7 8 -13 18 -13 30 0 101 -51 99 -72 -2 -23
-3 -23 -32 8 l-25 27 -13 -32 c-14 -34 -27 -32 -27 4 0 27 -27 52 -40 39 -5
-5 -14 -27 -19 -49 -9 -35 -10 -30 -9 45 1 108 0 111 -17 75 l-15 -30 4 35 c3
19 8 47 11 62 8 29 -22 68 -51 68 -15 0 -15 -22 2 -82 3 -10 1 -18 -5 -18 -6
0 -11 9 -11 21 0 11 -11 37 -25 57 -14 20 -25 42 -25 49 0 21 -36 35 -50 18
-9 -11 -7 -26 6 -69 15 -48 16 -61 4 -95 -7 -23 -10 -53 -6 -73 4 -18 9 -49
12 -68 4 -32 3 -30 -16 15 -21 54 -26 110 -10 120 17 10 11 58 -11 100 -19 34
-20 44 -9 73 10 29 9 36 -6 53 -10 11 -24 17 -31 15 -7 -3 -13 -1 -13 4 0 18
47 10 66 -11z m-105 -23 c-8 -9 -10 -29 -5 -53 6 -36 5 -37 -10 -18 -20 26
-20 44 1 67 19 21 31 25 14 4z m-45 -188 c0 -85 14 -177 30 -210 8 -15 13 -53
13 -85 -1 -56 -2 -56 -8 -17 -4 23 -15 53 -24 67 -9 15 -17 39 -17 56 0 50
-28 47 -51 -7 -19 -42 -21 -61 -16 -172 l5 -125 -19 168 -19 168 26 22 c30 26
64 107 64 153 0 25 6 44 15 44 0 0 1 -28 1 -62z m-1366 -18 c0 -5 -4 -10 -10
-10 -5 0 -12 -23 -16 -51 -7 -52 -43 -109 -69 -109 -8 0 -21 -10 -29 -22 -13
-18 -16 -19 -16 -6 0 9 5 20 10 23 6 3 8 16 4 29 -3 12 3 44 13 70 13 36 27
54 53 67 39 21 60 24 60 9z m966 -92 c8 -40 13 -91 13 -113 -1 -40 -2 -40 -9
10 -5 28 -11 64 -14 81 -11 57 -15 107 -10 101 3 -3 12 -39 20 -79z m-770 33
c0 -11 -5 -17 -13 -14 -7 3 -13 0 -13 -6 0 -6 6 -11 13 -11 6 0 -3 -9 -21 -20
-18 -11 -40 -36 -49 -56 -17 -34 -17 -38 4 -95 23 -64 23 -77 -2 -29 -19 37
-30 38 -43 3 -10 -26 -10 -25 -11 18 -1 33 3 49 14 53 8 3 15 12 15 21 0 37
49 108 105 155 1 0 1 -8 1 -19z m988 -142 c16 -153 24 -242 29 -314 l6 -80
-18 100 c-10 55 -26 132 -35 172 -9 40 -16 102 -16 138 0 57 2 64 14 52 8 -7
16 -38 20 -68z m-1484 -48 c5 -19 7 -37 4 -40 -3 -3 -22 3 -42 14 -40 22 -62
68 -54 112 5 24 5 24 43 -13 22 -21 44 -54 49 -73z m1049 -58 c31 -100 22
-113 -12 -17 -17 50 -27 97 -26 129 l2 50 7 -45 c3 -25 17 -78 29 -117z m1123
59 c-2 -26 2 -79 8 -118 14 -75 15 -128 5 -187 -5 -25 0 -67 13 -125 22 -91
75 -393 70 -398 -2 -1 -11 15 -20 37 -9 22 -12 36 -6 33 8 -5 9 -1 5 10 -4 10
-10 36 -13 59 -6 37 -35 93 -56 107 -4 3 -15 63 -24 134 -14 103 -15 143 -7
208 11 83 2 205 -18 241 -8 15 -6 22 8 33 32 24 40 17 35 -34z m-93 -326 c1
-99 -1 -177 -3 -175 -9 10 -27 429 -20 450 13 37 22 -67 23 -275z m-151 64 c1
-28 -1 -31 -8 -15 -5 11 -8 49 -8 85 l1 65 7 -50 c5 -27 8 -66 8 -85z m-3257
-11 c-5 -13 -10 -19 -10 -12 -1 15 10 45 15 40 3 -2 0 -15 -5 -28z m3731 -239
c-15 -33 -28 -56 -30 -51 -3 9 45 111 52 111 3 0 -8 -27 -22 -60z m105 -441
c7 -7 19 -3 36 15 14 14 33 26 42 26 23 0 9 -49 -22 -78 -24 -22 -25 -23 -9
-69 18 -53 20 -109 5 -173 -11 -47 -47 -115 -57 -106 -3 3 2 14 10 23 26 30
38 83 38 165 0 73 -17 139 -39 152 -3 2 -8 -55 -10 -127 -6 -212 -7 -231 -18
-252 -6 -11 -16 -38 -23 -60 -39 -120 -169 -373 -178 -346 -2 6 -8 9 -13 5 -5
-3 -9 -3 -9 -1 0 7 29 75 56 132 117 250 164 431 164 633 0 65 -4 80 -40 151
-47 93 -51 113 -10 51 16 -25 30 -51 30 -57 0 -7 4 -13 8 -13 4 0 7 33 5 73
-2 68 -1 66 11 -31 7 -57 18 -108 23 -113z m-250 79 c-3 -7 -5 -2 -5 12 0 14
2 19 5 13 2 -7 2 -19 0 -25z m-6 -371 c1 -53 -1 -100 -5 -104 -3 -3 -6 27 -6
69 0 41 -2 117 -4 169 -5 86 -4 88 4 29 5 -36 10 -109 11 -163z m-3355 114
c-14 -26 -61 -50 -73 -37 -9 9 19 47 40 56 42 17 49 13 33 -19z m3344 -314 c0
-70 -26 -286 -35 -295 -6 -7 5 124 15 171 5 21 7 74 7 118 -1 43 1 79 6 79 4
0 7 -33 7 -73z m-93 31 c-3 -8 -6 -5 -6 6 -1 11 2 17 5 13 3 -3 4 -12 1 -19z
m-219 -242 c27 -39 28 -76 5 -119 l-18 -32 -5 60 c-5 57 -28 116 -50 130 -5 3
-10 11 -10 16 0 17 55 -21 78 -55z m-128 -7 c0 -34 -10 -37 -35 -9 -14 16 -15
23 -6 34 18 22 41 8 41 -25z m-1116 -110 c30 -35 41 -71 31 -96 -5 -14 -12 -4
-27 37 -11 30 -27 63 -36 73 -8 9 -10 17 -4 17 5 0 22 -14 36 -31z m-95 -8
c10 -7 11 -13 2 -30 -13 -23 -31 -20 -31 5 0 8 -4 14 -10 14 -5 0 -10 5 -10
10 0 12 30 13 49 1z m1608 -108 c-7 -130 -22 -232 -37 -247 -11 -11 -10 6 16
209 8 61 14 118 14 128 0 9 3 17 6 17 3 0 4 -48 1 -107z m241 -199 c73 -46
202 -172 254 -248 51 -75 129 -239 157 -333 42 -142 48 -280 20 -488 -15 -112
-35 -166 -75 -208 -30 -31 -35 -40 -24 -50 9 -9 11 -9 6 0 -3 6 -2 14 4 18 14
9 12 -21 -3 -37 -6 -7 -21 -31 -32 -52 -11 -22 -28 -48 -37 -58 -10 -10 -18
-23 -18 -29 0 -11 -49 -78 -79 -110 -33 -34 -71 -79 -71 -84 1 -3 -21 -25 -47
-49 -26 -24 -68 -62 -93 -84 -25 -23 -48 -42 -52 -42 -5 0 -16 -7 -25 -15 -56
-49 -97 -78 -173 -127 -47 -29 -115 -74 -152 -98 l-68 -45 -2 -100 -2 -100 -3
93 c-2 50 -6 92 -9 92 -17 0 -245 -169 -289 -214 -223 -231 -242 -253 -250
-292 -6 -32 -9 -36 -15 -19 -7 19 -8 19 -19 -5 -6 -14 -29 -50 -51 -80 -103
-140 -207 -325 -295 -522 -21 -48 -40 -86 -42 -85 -6 6 77 247 116 336 22 51
38 97 35 102 -3 5 4 19 15 31 33 34 61 122 61 188 0 32 3 65 6 74 8 21 30 20
44 -1 9 -17 12 -16 31 6 11 14 18 33 16 43 -5 17 6 31 29 34 6 1 55 48 110
104 114 118 242 229 402 350 61 46 112 88 112 92 0 5 5 8 12 8 18 0 108 61
108 74 0 12 -13 39 -49 99 -13 20 -21 37 -18 37 3 0 22 -29 43 -65 22 -35 42
-65 47 -65 18 0 257 192 277 224 9 14 9 16 -1 10 -9 -5 -10 -2 -6 10 5 12 -2
21 -28 33 -40 19 -40 19 -20 53 l15 25 -5 -32 c-4 -23 -1 -33 7 -33 7 0 25
-11 40 -24 l26 -25 46 36 c40 31 107 119 145 191 11 22 11 22 -16 16 -49 -13
-136 -55 -185 -90 -26 -18 -45 -27 -42 -19 9 22 104 79 195 116 74 31 81 36
117 93 218 351 137 884 -176 1151 -39 33 -69 66 -67 72 2 7 1 12 -3 12 -23 -4
-28 6 -27 60 0 33 4 57 9 53 5 -3 7 2 3 11 -9 23 -4 22 61 -19z m18 -419 c-11
-16 -26 -25 -42 -25 -25 0 -26 1 -12 22 13 20 56 40 67 32 2 -2 -4 -15 -13
-29z m-2194 -582 c0 -4 4 -18 9 -30 7 -20 -1 -27 -89 -76 -157 -87 -310 -175
-415 -238 -53 -33 -99 -59 -101 -59 -2 0 -28 -16 -57 -35 -30 -20 -62 -41 -73
-48 -71 -46 -171 -144 -215 -212 -14 -22 -28 -42 -31 -45 -3 -3 -23 -39 -44
-81 -28 -57 -45 -112 -68 -225 -29 -143 -29 -153 -19 -264 6 -64 19 -140 29
-170 18 -53 19 -54 62 -57 57 -4 65 -13 11 -13 -50 0 -50 2 9 -99 39 -69 124
-156 203 -209 49 -33 260 -151 500 -278 103 -54 213 -122 282 -174 63 -47 122
-91 132 -98 43 -30 -31 11 -120 67 -50 31 -110 65 -132 75 -75 35 -392 194
-426 215 -19 12 -37 21 -41 21 -14 0 -8 -53 8 -71 8 -9 22 -38 30 -65 14 -46
14 -47 -5 -30 -24 22 -51 98 -51 142 0 31 -5 35 -97 84 -201 105 -289 185
-374 343 -18 31 -35 57 -39 57 -4 0 -10 19 -14 43 -3 23 -17 103 -29 177 -20
111 -22 150 -16 220 22 232 102 417 248 574 l36 38 -55 -7 c-88 -12 -160 -55
-211 -127 -23 -34 -53 -86 -66 -117 -12 -31 -23 -47 -23 -36 0 31 63 157 100
199 45 50 115 84 202 96 61 9 79 16 118 48 70 59 147 109 385 247 241 141 432
240 443 230 2 -2 4 -7 4 -12z m-577 -146 c8 -13 14 -42 13 -64 -1 -37 -3 -40
-19 -30 -25 16 -43 61 -35 92 8 31 21 32 41 2z m2213 -165 c19 -18 62 -38 97
-46 44 -10 102 -52 110 -78 4 -13 17 -34 29 -48 l21 -25 -27 24 c-15 13 -30
32 -33 41 -6 17 -14 22 -105 63 -30 13 -75 43 -100 67 -25 23 -36 36 -25 29
11 -8 26 -20 33 -27z m-263 -173 c11 -16 1 -19 -13 -3 -7 8 -8 14 -3 14 5 0
13 -5 16 -11z m-1085 -163 c0 -2 -13 -6 -29 -8 -17 -2 -28 -1 -25 4 5 8 54 12
54 4z m1013 -16 c-3 -12 -8 -19 -11 -16 -5 6 5 36 12 36 2 0 2 -9 -1 -20z
m522 9 c11 -17 -1 -21 -15 -4 -8 9 -8 15 -2 15 6 0 14 -5 17 -11z m-349 -44
c-23 -35 -11 -49 22 -28 l27 17 -19 -22 c-22 -26 -30 -27 -49 -7 -8 8 -17 12
-21 9 -3 -2 5 8 19 22 14 15 25 31 25 37 0 6 3 7 6 4 4 -4 -1 -18 -10 -32z
m-186 -3 c0 -5 -9 -18 -21 -30 -11 -12 -17 -28 -13 -35 5 -9 4 -9 -6 0 -9 9
-7 18 11 42 24 32 29 36 29 23z m56 -60 c-17 -16 -18 -16 -5 5 7 12 15 20 18
17 3 -2 -3 -12 -13 -22z m64 18 c0 -5 -5 -10 -11 -10 -5 0 -7 5 -4 10 3 6 8
10 11 10 2 0 4 -4 4 -10z m-26 -19 c3 -5 -1 -11 -9 -14 -9 -4 -12 -1 -8 9 6
16 10 17 17 5z m-74 -36 c-7 -9 -15 -13 -19 -10 -3 3 1 10 9 15 21 14 24 12
10 -5z m-128 -20 c-17 -14 -33 -25 -37 -25 -9 0 48 49 58 50 5 0 -5 -11 -21
-25z m1028 11 c0 -17 -14 -29 -23 -20 -8 8 3 34 14 34 5 0 9 -6 9 -14z m-980
-10 c0 -3 -4 -8 -10 -11 -5 -3 -10 -1 -10 4 0 6 5 11 10 11 6 0 10 -2 10 -4z
m-30 -30 c0 -2 -8 -10 -17 -17 -16 -13 -17 -12 -4 4 13 16 21 21 21 13z m524
-18 c-4 -6 -15 -36 -25 -67 l-18 -56 5 45 c7 56 24 101 35 94 5 -3 6 -10 3
-16z m510 -13 c5 -22 4 -26 -4 -15 -5 8 -10 24 -10 34 0 26 6 18 14 -19z
m-1096 13 c-3 -7 -10 -14 -16 -14 -7 -1 -17 -2 -23 -3 -6 0 -8 -8 -5 -16 3 -9
-1 -18 -9 -21 -8 -4 -13 -10 -10 -14 3 -4 -3 -14 -12 -21 -9 -8 -14 -9 -12 -4
3 6 13 27 23 48 15 33 26 42 49 38 4 0 7 4 7 9 0 6 3 10 6 10 3 0 4 -6 2 -12z
m13 -84 c-5 -27 -7 -52 -5 -56 3 -5 0 -8 -5 -8 -14 0 -14 20 0 76 15 59 22 51
10 -12z m1110 1 c4 -35 -1 -119 -6 -114 -2 3 -7 38 -10 79 -3 48 -2 71 5 64 5
-5 10 -18 11 -29z m-1005 -20 c-11 -8 -25 -15 -30 -15 -6 1 0 7 14 15 32 19
40 18 16 0z m170 -80 c-36 -47 -43 -45 -8 4 15 21 29 37 31 35 2 -2 -8 -19
-23 -39z m665 28 c13 -16 12 -17 -3 -4 -17 13 -22 21 -14 21 2 0 10 -8 17 -17z
m64 -53 c10 -11 16 -20 13 -20 -3 0 -13 9 -23 20 -10 11 -16 20 -13 20 3 0 13
-9 23 -20z m-1112 -27 c-7 -17 -20 -17 -26 0 -8 22 3 38 18 24 7 -6 10 -18 8
-24z m50 -35 c-9 -20 -10 -20 -10 10 0 22 4 29 10 23 7 -7 7 -18 0 -33z m277
37 c0 -8 -153 -105 -164 -105 -6 0 18 19 54 41 36 22 74 47 85 54 23 16 25 17
25 10z m425 -167 c-20 -61 -25 -95 -21 -128 4 -31 3 -40 -4 -30 -15 23 -12 68
9 145 10 39 23 93 27 120 8 49 8 50 12 13 2 -21 -8 -72 -23 -120z m445 84 c0
-15 -2 -15 -10 -2 -13 20 -13 33 0 25 6 -3 10 -14 10 -23z m-180 -58 c56 -51
152 -96 192 -90 18 3 50 8 71 11 42 7 62 36 45 68 -11 21 -5 21 33 1 42 -21
36 -52 -16 -81 -33 -19 -36 -23 -17 -23 12 0 41 9 62 20 90 46 191 32 266 -36
l39 -35 -35 7 c-19 4 -49 6 -66 5 -17 -1 -56 10 -86 24 -48 22 -60 24 -84 14
-16 -7 -66 -12 -111 -12 -50 0 -80 -4 -76 -10 7 -12 -25 -2 -92 28 -30 13 -80
52 -125 96 -72 70 -72 79 0 13z m-924 -83 c-9 -16 -21 -54 -27 -83 -12 -55
-56 -154 -65 -145 -3 3 3 22 14 44 10 21 22 54 26 73 7 38 57 152 63 146 3 -2
-3 -18 -11 -35z m497 -56 c4 -8 2 -17 -3 -20 -6 -4 -10 3 -10 14 0 25 6 27 13
6z m703 -21 c35 -17 66 -70 79 -134 4 -19 17 -46 30 -60 12 -14 34 -44 49 -67
14 -24 43 -54 64 -67 48 -30 57 -42 70 -96 15 -60 9 -61 -16 -2 -12 27 -34 57
-49 67 -46 29 -82 68 -105 110 -11 22 -29 50 -38 62 -10 13 -21 43 -24 67 -8
50 -35 89 -80 117 -38 23 -26 25 20 3z m-697 -73 c1 -35 -5 -22 -12 24 -5 28
-4 34 3 20 5 -11 9 -31 9 -44z m128 -18 c-3 -10 -5 -2 -5 17 0 19 2 27 5 18 2
-10 2 -26 0 -35z m-73 1 c3 -8 2 -12 -4 -9 -6 3 -10 10 -10 16 0 14 7 11 14
-7z m-333 -11 c-31 -54 -161 -246 -161 -238 0 10 83 143 135 218 27 38 43 51
26 20z m356 -5 c-3 -8 -6 -5 -6 6 -1 11 2 17 5 13 3 -3 4 -12 1 -19z m-63 -33
c-4 -8 -8 -15 -10 -15 -2 0 -4 7 -4 15 0 8 4 15 10 15 5 0 7 -7 4 -15z m14
-50 c-3 -3 -9 2 -12 12 -6 14 -5 15 5 6 7 -7 10 -15 7 -18z m-8 -45 c0 -11 -2
-20 -4 -20 -2 0 -6 9 -9 20 -3 11 -1 20 4 20 5 0 9 -9 9 -20z m100 -32 c0 -5
-9 -4 -20 2 -11 6 -20 12 -20 14 0 2 9 2 20 -1 11 -3 20 -9 20 -15z m511 -35
c13 -16 12 -17 -3 -4 -10 7 -18 15 -18 17 0 8 8 3 21 -13z m-692 -15 c-2 -2
-16 -14 -31 -27 -16 -14 -28 -21 -28 -17 0 11 52 57 58 51 3 -3 3 -6 1 -7z
m-374 -56 c8 -20 2 -24 -27 -17 -14 4 -28 18 -35 35 l-11 29 34 -16 c18 -9 36
-23 39 -31z m453 -7 c-2 -19 -1 -35 2 -35 4 0 7 -21 9 -47 2 -46 -35 -183 -50
-183 -4 0 0 21 9 48 20 60 23 232 4 232 -7 0 -15 -7 -18 -15 -4 -8 -10 -13
-14 -10 -5 3 -11 1 -15 -5 -3 -5 -1 -10 4 -10 14 0 13 -18 -4 -55 l-13 -30 -1
51 c-1 49 0 51 42 72 23 12 44 22 46 22 2 0 1 -16 -1 -35z m-165 -2 c-7 -2
-19 -2 -25 0 -7 3 -2 5 12 5 14 0 19 -2 13 -5z m-213 -51 c3 -3 -8 -2 -25 2
-16 4 -34 12 -40 17 -5 5 6 4 25 -2 19 -7 37 -14 40 -17z m814 -90 c11 -12 17
-22 14 -22 -3 0 -34 33 -68 73 -45 51 -49 57 -14 21 27 -28 58 -60 68 -72z
m-759 98 c-3 -5 -14 -10 -23 -9 -14 0 -13 2 3 9 27 11 27 11 20 0z m232 -102
c-3 -7 -5 -2 -5 12 0 14 2 19 5 13 2 -7 2 -19 0 -25z m-271 -60 c-36 -40 -78
-94 -93 -120 -31 -53 -43 -60 -43 -25 1 42 34 91 78 115 25 14 52 40 65 63 13
23 29 39 41 39 14 0 2 -19 -48 -72z m-471 42 c-3 -5 -11 -10 -16 -10 -6 0 -7
5 -4 10 3 6 11 10 16 10 6 0 7 -4 4 -10z m975 -39 c0 -32 -6 -24 -14 19 -4 25
-3 31 4 20 5 -8 10 -26 10 -39z m-805 29 c3 -5 1 -10 -4 -10 -6 0 -11 5 -11
10 0 6 2 10 4 10 3 0 8 -4 11 -10z m562 -22 c-3 -7 -5 -2 -5 12 0 14 2 19 5
13 2 -7 2 -19 0 -25z m606 -39 c8 -28 2 -24 -23 19 -21 34 -21 36 -2 19 11
-10 22 -27 25 -38z m72 25 c9 -15 12 -23 6 -20 -11 7 -35 46 -28 46 3 0 12
-12 22 -26z m-1166 -98 c-1 -16 -3 -14 -9 9 -20 72 -21 80 -6 46 9 -18 16 -43
15 -55z m345 6 c-9 -26 -22 -51 -27 -57 -6 -7 -8 -5 -4 5 3 8 14 42 23 75 10
33 20 52 22 42 2 -9 -4 -39 -14 -65z m-324 -42 c8 -5 11 -10 5 -10 -5 0 -17 5
-25 10 -8 5 -10 10 -5 10 6 0 17 -5 25 -10z m-110 -24 c0 -2 -7 -7 -16 -10 -8
-3 -12 -2 -9 4 6 10 25 14 25 6z m1230 -14 c0 -5 -18 -14 -39 -20 -34 -11 -40
-17 -46 -49 -5 -27 -9 -33 -15 -22 -6 8 -6 15 0 17 6 2 10 12 10 23 0 16 46
46 88 58 1 1 2 -3 2 -7z m-1114 -61 c26 -61 34 -81 30 -81 -7 0 -46 85 -46 98
0 7 -7 15 -15 18 -8 4 -15 11 -15 16 0 19 31 -15 46 -51z"/>
<path d="M4048 4083 c7 -3 16 -2 19 1 4 3 -2 6 -13 5 -11 0 -14 -3 -6 -6z"/>
</g>
</svg>
